<?xml version="1.0" encoding="UTF-8"?>
<!DOCTYPE svg PUBLIC "-//W3C//DTD SVG 1.1//EN" "http://www.w3.org/Graphics/SVG/1.1/DTD/svg11.dtd">
<svg xmlns="http://www.w3.org/2000/svg" version="1.1" width="512px" height="512px" style="shape-rendering:geometricPrecision; text-rendering:geometricPrecision; image-rendering:optimizeQuality; fill-rule:evenodd; clip-rule:evenodd" xmlns:xlink="http://www.w3.org/1999/xlink">
<g><path style="opacity:0.987" fill="#ec5e71" d="M 226.5,-0.5 C 231.833,-0.5 237.167,-0.5 242.5,-0.5C 256.122,4.80444 263.788,14.8044 265.5,29.5C 216.167,29.5 166.833,29.5 117.5,29.5C 153.789,19.3443 190.123,9.34433 226.5,-0.5 Z"/></g>
<g><path style="opacity:0.993" fill="#e85c73" d="M 117.5,29.5 C 166.833,29.5 216.167,29.5 265.5,29.5C 267.101,32.5502 268.101,35.8835 268.5,39.5C 205.998,39.8324 143.664,39.4991 81.5,38.5C 93.3967,35.0901 105.397,32.0901 117.5,29.5 Z"/></g>
<g><path style="opacity:0.996" fill="#e35975" d="M 81.5,38.5 C 143.664,39.4991 205.998,39.8324 268.5,39.5C 271.122,47.322 273.122,55.322 274.5,63.5C 274.5,64.5 274.5,65.5 274.5,66.5C 192.5,66.5 110.5,66.5 28.5,66.5C 32.0867,56.4161 39.0867,49.9161 49.5,47C 60.185,44.1624 70.8517,41.329 81.5,38.5 Z"/></g>
<g><path style="opacity:0.998" fill="#dd5677" d="M 274.5,63.5 C 277.435,71.9004 279.769,80.5671 281.5,89.5C 197.5,89.5 113.5,89.5 29.5,89.5C 26.2183,81.9011 25.885,74.2344 28.5,66.5C 110.5,66.5 192.5,66.5 274.5,66.5C 274.5,65.5 274.5,64.5 274.5,63.5 Z"/></g>
<g><path style="opacity:0.998" fill="#d75379" d="M 29.5,89.5 C 113.5,89.5 197.5,89.5 281.5,89.5C 283.794,95.9917 285.794,102.658 287.5,109.5C 203.167,109.5 118.833,109.5 34.5,109.5C 33.1457,102.75 31.4791,96.0829 29.5,89.5 Z"/></g>
<g><path style="opacity:0.98" fill="#d85379" d="M 399.5,109.5 C 366.662,109.168 333.996,109.502 301.5,110.5C 297.928,99.7656 294.928,88.7656 292.5,77.5C 326.279,86.1951 359.946,95.3618 393.5,105C 395.684,106.363 397.684,107.863 399.5,109.5 Z"/></g>
<g><path style="opacity:0.998" fill="#d24f7b" d="M 34.5,109.5 C 118.833,109.5 203.167,109.5 287.5,109.5C 289.323,116.459 290.99,123.459 292.5,130.5C 208.5,130.5 124.5,130.5 40.5,130.5C 38.6555,123.455 36.6555,116.455 34.5,109.5 Z"/></g>
<g><path style="opacity:0.995" fill="#d24f7b" d="M 399.5,109.5 C 405.761,115.025 409.095,122.025 409.5,130.5C 375.167,130.5 340.833,130.5 306.5,130.5C 304.211,124.011 302.545,117.345 301.5,110.5C 333.996,109.502 366.662,109.168 399.5,109.5 Z"/></g>
<g><path style="opacity:0.997" fill="#cb4c7e" d="M 40.5,130.5 C 124.5,130.5 208.5,130.5 292.5,130.5C 295.945,141.27 298.945,152.27 301.5,163.5C 217.571,162.503 133.571,162.17 49.5,162.5C 46.131,152.044 43.131,141.378 40.5,130.5 Z"/></g>
<g><path style="opacity:0.993" fill="#cc4c7d" d="M 306.5,130.5 C 340.833,130.5 375.167,130.5 409.5,130.5C 409.418,139.491 407.751,148.157 404.5,156.5C 374.167,156.5 343.833,156.5 313.5,156.5C 310.798,148.041 308.465,139.374 306.5,130.5 Z"/></g>
<g><path style="opacity:0.997" fill="#c44780" d="M 49.5,162.5 C 133.571,162.17 217.571,162.503 301.5,163.5C 303.697,170.761 305.697,178.094 307.5,185.5C 223.5,185.5 139.5,185.5 55.5,185.5C 52.7422,178.14 50.7422,170.473 49.5,162.5 Z"/></g>
<g><path style="opacity:0.992" fill="#c54880" d="M 313.5,156.5 C 343.833,156.5 374.167,156.5 404.5,156.5C 402.278,166.397 399.612,176.064 396.5,185.5C 371.167,185.5 345.833,185.5 320.5,185.5C 318.01,175.875 315.677,166.208 313.5,156.5 Z"/></g>
<g><path style="opacity:0.998" fill="#be4483" d="M 55.5,185.5 C 139.5,185.5 223.5,185.5 307.5,185.5C 309.656,193.124 311.656,200.79 313.5,208.5C 229.833,208.5 146.167,208.5 62.5,208.5C 62.5,209.5 62.5,210.5 62.5,211.5C 59.5647,203.1 57.2314,194.433 55.5,185.5 Z"/></g>
<g><path style="opacity:0.993" fill="#be4483" d="M 320.5,185.5 C 345.833,185.5 371.167,185.5 396.5,185.5C 394.964,193.311 392.964,200.978 390.5,208.5C 369.5,208.5 348.5,208.5 327.5,208.5C 325.028,200.963 322.695,193.296 320.5,185.5 Z"/></g>
<g><path style="opacity:0.998" fill="#b84185" d="M 313.5,208.5 C 315.496,215.817 317.496,223.15 319.5,230.5C 235.5,231.167 151.5,231.833 67.5,232.5C 65.3626,225.617 63.696,218.617 62.5,211.5C 62.5,210.5 62.5,209.5 62.5,208.5C 146.167,208.5 229.833,208.5 313.5,208.5 Z"/></g>
<g><path style="opacity:0.99" fill="#b84185" d="M 327.5,208.5 C 348.5,208.5 369.5,208.5 390.5,208.5C 388.945,215.733 386.945,222.733 384.5,229.5C 367.738,231.464 350.738,232.13 333.5,231.5C 330.742,224.14 328.742,216.473 327.5,208.5 Z"/></g>
<g><path style="opacity:0.997" fill="#b13d87" d="M 319.5,230.5 C 322.146,239.75 324.479,249.083 326.5,258.5C 242.429,258.83 158.429,258.497 74.5,257.5C 72.0006,249.319 69.6672,240.986 67.5,232.5C 151.5,231.833 235.5,231.167 319.5,230.5 Z"/></g>
<g><path style="opacity:0.983" fill="#b23d87" d="M 459.5,257.5 C 436.598,258.826 413.598,258.826 390.5,257.5C 395.481,239.912 400.315,222.245 405,204.5C 405.414,204.043 405.914,203.709 406.5,203.5C 424.161,221.494 441.827,239.494 459.5,257.5 Z"/></g>
<g><path style="opacity:0.984" fill="#b03d88" d="M 384.5,229.5 C 381.373,242.882 378.039,256.216 374.5,269.5C 364.167,269.5 353.833,269.5 343.5,269.5C 339.592,257.09 336.259,244.423 333.5,231.5C 350.738,232.13 367.738,231.464 384.5,229.5 Z"/></g>
<g><path style="opacity:0.997" fill="#ab3c8a" d="M 74.5,257.5 C 158.429,258.497 242.429,258.83 326.5,258.5C 327.945,261.937 328.945,265.603 329.5,269.5C 245.429,269.17 161.429,269.503 77.5,270.5C 76.3434,266.207 75.3434,261.873 74.5,257.5 Z"/></g>
<g><path style="opacity:0.992" fill="#ab3c8a" d="M 390.5,257.5 C 413.598,258.826 436.598,258.826 459.5,257.5C 463.5,260.833 467.167,264.5 470.5,268.5C 442.833,269.167 415.167,269.833 387.5,270.5C 388.656,266.207 389.656,261.874 390.5,257.5 Z"/></g>
<g><path style="opacity:0.994" fill="#a5418d" d="M 470.5,268.5 C 474.628,271.29 477.628,274.957 479.5,279.5C 448.167,280.833 416.833,280.833 385.5,279.5C 385.7,276.37 386.366,273.37 387.5,270.5C 415.167,269.833 442.833,269.167 470.5,268.5 Z"/></g>
<g><path style="opacity:0.998" fill="#a5418d" d="M 329.5,269.5 C 330.774,271.993 331.44,274.659 331.5,277.5C 331.5,278.5 331.5,279.5 331.5,280.5C 247.833,280.5 164.167,280.5 80.5,280.5C 79.5033,277.183 78.5033,273.85 77.5,270.5C 161.429,269.503 245.429,269.17 329.5,269.5 Z"/></g>
<g><path style="opacity:0.997" fill="#9f4591" d="M 331.5,277.5 C 332.486,281.97 332.819,286.637 332.5,291.5C 249.402,290.169 166.402,290.169 83.5,291.5C 82.0552,288.063 81.0552,284.397 80.5,280.5C 164.167,280.5 247.833,280.5 331.5,280.5C 331.5,279.5 331.5,278.5 331.5,277.5 Z"/></g>
<g><path style="opacity:0.963" fill="#a14490" d="M 343.5,269.5 C 353.833,269.5 364.167,269.5 374.5,269.5C 372.345,276.455 370.345,283.455 368.5,290.5C 360.747,290.799 353.08,290.466 345.5,289.5C 345.714,282.732 345.047,276.065 343.5,269.5 Z"/></g>
<g><path style="opacity:0.994" fill="#9f4591" d="M 385.5,279.5 C 416.833,280.833 448.167,280.833 479.5,279.5C 482.19,282.569 483.523,286.236 483.5,290.5C 449.611,291.149 415.944,290.482 382.5,288.5C 383.054,285.254 384.054,282.254 385.5,279.5 Z"/></g>
<g><path style="opacity:0.996" fill="#984b95" d="M 332.5,291.5 C 331.439,296.048 329.439,300.048 326.5,303.5C 246.668,302.501 166.668,302.167 86.5,302.5C 85.0552,299.063 84.0552,295.397 83.5,291.5C 166.402,290.169 249.402,290.169 332.5,291.5 Z"/></g>
<g><path style="opacity:0.991" fill="#984b95" d="M 382.5,288.5 C 415.944,290.482 449.611,291.149 483.5,290.5C 484.689,294.676 484.356,298.676 482.5,302.5C 447.833,302.5 413.167,302.5 378.5,302.5C 379.83,297.85 381.163,293.183 382.5,288.5 Z"/></g>
<g><path style="opacity:0.971" fill="#944e97" d="M 345.5,289.5 C 353.08,290.466 360.747,290.799 368.5,290.5C 366.697,297.906 364.697,305.239 362.5,312.5C 353.833,312.5 345.167,312.5 336.5,312.5C 341.426,305.639 344.426,297.973 345.5,289.5 Z"/></g>
<g><path style="opacity:0.996" fill="#924f98" d="M 86.5,302.5 C 166.668,302.167 246.668,302.501 326.5,303.5C 323.71,307.628 320.043,310.628 315.5,312.5C 239.762,312.83 164.096,312.497 88.5,311.5C 87.4222,308.598 86.7556,305.598 86.5,302.5 Z"/></g>
<g><path style="opacity:0.993" fill="#924f98" d="M 378.5,302.5 C 413.167,302.5 447.833,302.5 482.5,302.5C 482.341,306.674 480.675,310.008 477.5,312.5C 443.833,312.5 410.167,312.5 376.5,312.5C 376.851,309.097 377.518,305.763 378.5,302.5 Z"/></g>
<g><path style="opacity:0.993" fill="#8a559c" d="M 88.5,311.5 C 164.096,312.497 239.762,312.83 315.5,312.5C 298.156,318.256 280.489,323.256 262.5,327.5C 205.931,326.169 149.264,326.169 92.5,327.5C 91.1669,322.167 89.8335,316.834 88.5,311.5 Z"/></g>
<g><path style="opacity:0.996" fill="#8a559c" d="M 376.5,312.5 C 410.167,312.5 443.833,312.5 477.5,312.5C 473.895,317.774 469.562,322.441 464.5,326.5C 433.833,326.5 403.167,326.5 372.5,326.5C 373.261,321.563 374.595,316.897 376.5,312.5 Z"/></g>
<g><path style="opacity:0.969" fill="#88579e" d="M 336.5,312.5 C 345.167,312.5 353.833,312.5 362.5,312.5C 360.945,319.733 358.945,326.733 356.5,333.5C 336.674,332.503 316.674,332.17 296.5,332.5C 306.443,330.086 316.11,326.586 325.5,322C 329.334,318.998 333,315.831 336.5,312.5 Z"/></g>
<g><path style="opacity:0.992" fill="#8459a0" d="M 262.5,327.5 C 249.605,331.243 236.605,334.576 223.5,337.5C 180.833,337.5 138.167,337.5 95.5,337.5C 94.5,334.167 93.5,330.833 92.5,327.5C 149.264,326.169 205.931,326.169 262.5,327.5 Z"/></g>
<g><path style="opacity:0.997" fill="#835aa1" d="M 372.5,326.5 C 403.167,326.5 433.833,326.5 464.5,326.5C 460.833,330.833 456.833,334.833 452.5,338.5C 425.005,337.502 397.338,337.169 369.5,337.5C 370.036,333.686 371.036,330.019 372.5,326.5 Z"/></g>
<g><path style="opacity:0.987" fill="#7f5da3" d="M 296.5,332.5 C 316.674,332.17 336.674,332.503 356.5,333.5C 356.074,337.427 355.074,341.093 353.5,344.5C 319.996,344.832 286.662,344.498 253.5,343.5C 267.696,339.368 282.03,335.701 296.5,332.5 Z"/></g>
<g><path style="opacity:0.989" fill="#7961a6" d="M 253.5,343.5 C 286.662,344.498 319.996,344.832 353.5,344.5C 353.435,347.428 352.768,350.095 351.5,352.5C 307.736,353.83 264.069,353.83 220.5,352.5C 231.27,349.055 242.27,346.055 253.5,343.5 Z"/></g>
<g><path style="opacity:0.981" fill="#7a60a6" d="M 95.5,337.5 C 138.167,337.5 180.833,337.5 223.5,337.5C 191.394,346.986 158.894,355.319 126,362.5C 109.621,361.612 99.4545,353.279 95.5,337.5 Z"/></g>
<g><path style="opacity:0.993" fill="#7b60a5" d="M 369.5,337.5 C 397.338,337.169 425.005,337.502 452.5,338.5C 448.167,343.5 443.5,348.167 438.5,352.5C 414.212,353.481 389.878,353.814 365.5,353.5C 366.226,347.993 367.56,342.659 369.5,337.5 Z"/></g>
<g><path style="opacity:0.989" fill="#7365a9" d="M 220.5,352.5 C 264.069,353.83 307.736,353.83 351.5,352.5C 350.808,356.6 349.808,360.6 348.5,364.5C 290.998,364.832 233.664,364.499 176.5,363.5C 191.173,359.831 205.839,356.164 220.5,352.5 Z"/></g>
<g><path style="opacity:0.992" fill="#6d6aad" d="M 176.5,363.5 C 233.664,364.499 290.998,364.832 348.5,364.5C 347.79,368.025 346.79,371.358 345.5,374.5C 279.998,374.168 214.665,374.501 149.5,375.5C 146.679,375.461 144.012,374.795 141.5,373.5C 153.145,370.006 164.812,366.673 176.5,363.5 Z"/></g>
<g><path style="opacity:0.971" fill="#6f68ac" d="M 438.5,352.5 C 431.167,360.5 423.5,368.167 415.5,375.5C 397.007,374.503 378.341,374.17 359.5,374.5C 361.055,367.267 363.055,360.267 365.5,353.5C 389.878,353.814 414.212,353.481 438.5,352.5 Z"/></g>
<g><path style="opacity:0.994" fill="#676eb0" d="M 345.5,374.5 C 344.707,378.88 343.707,383.213 342.5,387.5C 291.572,386.505 240.572,386.172 189.5,386.5C 175.899,383.435 162.565,379.769 149.5,375.5C 214.665,374.501 279.998,374.168 345.5,374.5 Z"/></g>
<g><path style="opacity:0.988" fill="#6073b4" d="M 189.5,386.5 C 240.572,386.172 291.572,386.505 342.5,387.5C 341.458,391.697 340.125,395.697 338.5,399.5C 320.846,398.167 302.846,397.5 284.5,397.5C 266.33,397.5 248.33,397.833 230.5,398.5C 216.705,394.638 203.038,390.638 189.5,386.5 Z"/></g>
<g><path style="opacity:0.987" fill="#6372b2" d="M 359.5,374.5 C 378.341,374.17 397.007,374.503 415.5,375.5C 408.167,383.5 400.5,391.167 392.5,398.5C 379.677,397.505 366.677,397.171 353.5,397.5C 355.034,389.695 357.034,382.028 359.5,374.5 Z"/></g>
<g><path style="opacity:0.969" fill="#5b77b7" d="M 211.5,406.5 C 191.007,407.497 170.34,407.831 149.5,407.5C 141.368,399.869 133.368,392.036 125.5,384C 154.369,390.551 183.036,398.051 211.5,406.5 Z"/></g>
<g><path style="opacity:0.982" fill="#5979b8" d="M 230.5,398.5 C 248.33,397.833 266.33,397.5 284.5,397.5C 302.846,397.5 320.846,398.167 338.5,399.5C 333.811,412.109 324.645,418.443 311,418.5C 308.5,418.333 306,418.167 303.5,418C 279.191,411.34 254.858,404.84 230.5,398.5 Z"/></g>
<g><path style="opacity:0.986" fill="#5979b8" d="M 353.5,397.5 C 366.677,397.171 379.677,397.505 392.5,398.5C 387.833,403.833 382.833,408.833 377.5,413.5C 373.049,412.173 368.216,411.506 363,411.5C 357.452,411.547 351.952,411.88 346.5,412.5C 349.677,407.817 352.01,402.817 353.5,397.5 Z"/></g>
<g><path style="opacity:0.981" fill="#5080bd" d="M 211.5,406.5 C 236.457,413.323 261.457,419.989 286.5,426.5C 247.833,427.167 209.167,427.833 170.5,428.5C 163.167,421.833 156.167,414.833 149.5,407.5C 170.34,407.831 191.007,407.497 211.5,406.5 Z"/></g>
<g><path style="opacity:0.993" fill="#4885c1" d="M 377.5,413.5 C 368.167,423.5 358.5,433.167 348.5,442.5C 293.669,441.501 238.669,441.168 183.5,441.5C 178.833,437.5 174.5,433.167 170.5,428.5C 209.167,427.833 247.833,427.167 286.5,426.5C 302.759,433.65 318.759,433.15 334.5,425C 339.377,421.624 343.377,417.457 346.5,412.5C 351.952,411.88 357.452,411.547 363,411.5C 368.216,411.506 373.049,412.173 377.5,413.5 Z"/></g>
<g><path style="opacity:0.998" fill="#3d8dc8" d="M 183.5,441.5 C 238.669,441.168 293.669,441.501 348.5,442.5C 343.167,448.5 337.5,454.167 331.5,459.5C 288.428,459.172 245.428,459.506 202.5,460.5C 195.833,454.5 189.5,448.167 183.5,441.5 Z"/></g>
<g><path style="opacity:0.995" fill="#3296ce" d="M 331.5,459.5 C 324.5,467.167 317.167,474.5 309.5,481.5C 280.833,481.5 252.167,481.5 223.5,481.5C 216.167,474.833 209.167,467.833 202.5,460.5C 245.428,459.506 288.428,459.172 331.5,459.5 Z"/></g>
<g><path style="opacity:0.995" fill="#25a0d6" d="M 223.5,481.5 C 252.167,481.5 280.833,481.5 309.5,481.5C 302.036,489.465 294.369,497.298 286.5,505C 282.566,507.464 278.566,509.631 274.5,511.5C 269.167,511.5 263.833,511.5 258.5,511.5C 255.592,510.046 252.592,508.546 249.5,507C 240.938,498.27 232.272,489.77 223.5,481.5 Z"/></g>
</svg>
